# xmcd CD database file
# Generated: Tue Jan 6 12:35:02 2004 by KSCD
# 
# Track frame offsets:
#       150
#       10317
#       21264
#       33706
#       43875
#       54335
#       64319
#       75821
#       84193
#       94275
#       108127
#       116254
#       124814
#       138366
#       150110
#       161940
#       180689
#       194854
#
# Disc length: 2829 seconds
#
# Revision: 9
# Processed by: cddbd v1.4PL0 Copyright (c) Steve Scherf et al.
# Submitted via: Kscd 1.3.3
#
DISCID=e70b0b12
DTITLE=Johnny Cash - The Essential Johnny Cash - Disc 1
DYEAR=1900
DGENRE=
TTITLE0=Hey Porter
TTITLE1=Cry, Cry, Cry
TTITLE2=I Walk The Line
TTITLE3=Get Rhythm
TTITLE4=There You Go
TTITLE5=Ballad Of A Teenage Queen
TTITLE6=Big River
TTITLE7=Guess Things Happen That Way
TTITLE8=All Over Again
TTITLE9=Don't Take Your Guns To Town
TTITLE10=Five Feet High And Rising
TTITLE11=The Rebel - Johnny Yuma
TTITLE12=Tennessee Flat-Top Box
TTITLE13=I Still Miss Someone
TTITLE14=Ring Of Fire
TTITLE15=The Ballad Of Ira Hayes
TTITLE16=Orange Blossom Special
TTITLE17=Were You There (When They Crucified My Lord) (with The Carter Family)
EXTD=
EXTT0=
EXTT1=
EXTT2=
EXTT3=
EXTT4=
EXTT5=
EXTT6=
EXTT7=
EXTT8=
EXTT9=
EXTT10=
EXTT11=
EXTT12=
EXTT13=
EXTT14=
EXTT15=
EXTT16=
EXTT17=
PLAYORDER=
